<svg xmlns="http://www.w3.org/2000/svg" viewBox="0 0 3021 630">
  <g fill="none" fill-rule="evenodd">
    <path fill="#D546C5" d="m41 121 85-14v111h130v71H126v149c0 29 5 50 14 63 9 12 25 19 48 19 15 0 29-2 41-5l28-9 14 67-39 13c-16 4-34 6-56 6-26 0-48-3-65-10-18-7-31-17-42-31-10-13-17-29-21-48-5-19-7-40-7-65V121Zm297 463V55l85-14v181a226 226 0 0 1 69-12c29 0 54 4 73 12 20 9 35 20 47 35 11 14 20 32 25 53 5 20 7 43 7 68v206h-85V392c0-20-1-37-4-51-2-13-6-25-12-33-6-9-14-15-24-19-9-4-22-6-36-6a235 235 0 0 0-60 10v291h-85Zm387-181c0-33 5-61 15-85 9-24 22-44 38-61a169 169 0 0 1 118-49c50 1 89 16 117 48 28 31 43 78 43 140a398 398 0 0 1-2 31H813c2 30 12 52 31 68 18 17 45 25 80 25a264 264 0 0 0 97-18l11 69-19 8a272 272 0 0 1-62 12l-38 2c-32 0-60-5-84-14a156 156 0 0 1-93-100c-7-23-11-49-11-76Zm246-38c0-12-2-23-5-33-3-11-8-20-14-28a68 68 0 0 0-56-24 76 76 0 0 0-59 26c-7 8-12 17-16 27-4 11-6 21-8 32h158Zm383 27c0-39-5-66-15-83-9-17-27-26-53-26a250 250 0 0 0-56 6v295h-85V230a565 565 0 0 1 148-20c25 0 46 3 62 10s29 15 40 26a165 165 0 0 1 46-24 243 243 0 0 1 65-12c28 0 52 4 70 12 18 9 33 20 43 35 11 14 18 32 22 53s6 43 6 68v206h-85V392c0-39-4-66-14-83-9-17-27-26-54-26-13 0-26 2-38 7-12 4-21 8-27 13a395 395 0 0 1 10 79l-1 202h-84V392Zm376 11c0-33 5-61 15-85 9-24 22-44 38-61a169 169 0 0 1 118-49c50 1 89 16 117 48 29 31 43 78 43 140a398 398 0 0 1-2 31h-241c2 30 13 52 31 68 18 17 45 25 80 25a264 264 0 0 0 97-18l11 69-19 8a272 272 0 0 1-62 12l-37 2c-33 0-61-5-84-14a156 156 0 0 1-93-100c-8-23-12-49-12-76Zm246-38c0-12-2-23-5-33-3-11-8-20-14-28a68 68 0 0 0-56-24 76 76 0 0 0-59 26c-7 8-12 17-16 27-3 11-6 21-7 32h157Zm323-324a228 228 0 0 1 86 15l-16 70c-8-4-17-7-28-10-10-2-22-3-34-3-13 0-25 2-34 6a56 56 0 0 0-34 42c-3 10-4 21-4 32v25h133v71h-133v295h-85V192c0-47 13-84 37-111 25-27 63-40 112-40Zm432 532-64 13c-26 4-55 6-86 6-30 0-54-4-74-12-20-9-36-20-48-35s-20-33-25-54-8-43-8-68V218h85v192c0 39 6 67 17 84s31 25 60 25a401 401 0 0 0 58-5V218h85v355Zm235 18c-25 0-46-3-63-8-16-6-30-13-39-22a78 78 0 0 1-21-36c-4-14-6-31-6-49V55l85-14v419l2 26c2 7 5 13 9 18s10 8 17 11 17 5 28 6l-12 70Z"/>
    <path fill="#4671D5" d="M126 441c0 28 5 48 14 60s25 19 48 19c15 0 29-2 41-5l28-9 14 67-39 13c-16 4-34 6-56 6-26 0-48-3-65-10-18-7-31-17-42-31-10-13-17-29-21-48-4-17-6-36-7-58l85-4Zm212-11 85-4v158h-85V430Zm306-16v170h-85V418l85-4Zm412-22a404 404 0 0 1-2 35H813c2 30 12 52 31 68 18 17 45 25 80 25a264 264 0 0 0 97-18l11 69-19 8a272 272 0 0 1-62 12l-38 2c-32 0-60-5-84-14a156 156 0 0 1-93-100c-6-21-10-44-11-69l331-18Zm297-15 85-5v212h-84V392l-1-15Zm-123 6v201h-85V388l85-5Zm417-22v223h-85V366l85-5Zm87-4 87-5-2 13h157l-2-21 82-4a321 321 0 0 1 3 87h-241c2 30 13 52 31 68 18 17 45 25 80 25a264 264 0 0 0 97-18l11 69-19 8a272 272 0 0 1-62 12l-37 2c-33 0-61-5-84-14a156 156 0 0 1-93-100 246 246 0 0 1-8-122Zm501-26v253h-85V335l85-4Zm191-10 85-5v94c0 39 6 67 17 84s31 25 60 25a401 401 0 0 0 58-5V309l85-4v268l-64 13c-26 4-55 6-86 6-30 0-54-4-74-12-20-9-36-20-48-35s-20-33-25-54-8-43-8-68V321Zm411-22 85-4v165l2 26c2 7 5 13 9 18s10 8 17 11 17 5 28 6l-12 70c-25 0-46-3-63-8-16-6-30-13-39-22a78 78 0 0 1-21-36c-4-14-6-31-6-49V299Z"/>
  </g>
</svg>
