<svg xmlns="http://www.w3.org/2000/svg" viewBox="0 0 2000 2000">
  <path fill="#333" d="M1166.667 0 833.333 2000H200c-110.457 0-200-89.543-200-200V200C0 89.543 89.543 0 200 0h966.667Z"/>
  <path fill="#EEE" d="M1141.667 150 858.333 1850h-659.16c-26.96-.444-48.734-22.22-49.166-49.181L150 1800V199.173C150.448 171.94 172.662 150 200 150h941.667Z"/>
  <path fill="#B21CE2" d="M596.602 1637.336c-90.235 0-160.547-25.635-210.938-76.904-50.39-51.27-75.586-132.276-75.586-243.018V773.371H198.457v-137.11h111.621V354.134h165.235v282.129h304.101v137.11H475.313v466.698c0 49.805.878 88.184 2.636 115.137 1.758 26.953 8.496 52.148 20.215 75.586 9.961 20.508 26.074 35.889 48.34 46.143 22.266 10.253 52.441 15.38 90.527 15.38 26.953 0 53.028-3.955 78.223-11.865s43.36-14.502 54.492-19.775h9.668v148.535a798.454 798.454 0 0 1-94.482 20.654c-31.934 4.98-61.377 7.47-88.33 7.47Z"/>
  <path fill="#EEE" d="M1800 0c110.457 0 200 89.543 200 200v1600c0 110.457-89.543 200-200 200H833.334L1166.667 0H1800Z"/>
  <path fill="#333" d="M1800.827 150c27.233.448 49.173 22.662 49.173 50v1600.827c-.448 27.233-22.662 49.173-50 49.173H858.333l283.333-1700Z"/>
  <path fill="#2EF7FF" d="M1390.898 876.203v529.102c0 75 8.204 122.46 24.61 142.382 21.68 25.782 50.683 38.672 87.012 38.672h72.949V1618h-480.762v-31.64h36.035c23.438 0 44.824-5.86 64.16-17.579 19.336-11.718 32.666-27.539 39.99-47.46 7.325-19.923 10.987-58.594 10.987-116.016V876.203h-156.445v-63.281h156.445v-52.735c0-80.273 12.89-148.242 38.672-203.906 25.781-55.664 65.185-100.635 118.213-134.912 53.027-34.277 112.646-51.416 178.857-51.416 61.524 0 118.066 19.922 169.629 59.766 33.984 26.367 50.977 55.957 50.977 88.77 0 17.577-7.618 34.13-22.852 49.657-15.234 15.528-31.64 23.292-49.219 23.292-13.476 0-27.685-4.834-42.627-14.502-14.941-9.668-33.252-30.47-54.931-62.403-21.68-31.933-41.602-53.467-59.766-64.6-18.164-11.132-38.379-16.699-60.645-16.699-26.953 0-49.804 7.178-68.554 21.534-18.75 14.355-32.227 36.62-40.43 66.796-8.203 30.176-12.305 107.96-12.305 233.35v58.008h207.422v63.281h-207.422Z"/>
</svg>
